<svg width="26" height="26" viewBox="0 0 26 26" fill="none" xmlns="http://www.w3.org/2000/svg">
<path d="M9.20833 3.25H4.875C3.97753 3.25 3.25 3.97753 3.25 4.875V9.20833C3.25 10.1058 3.97753 10.8333 4.875 10.8333H9.20833C10.1058 10.8333 10.8333 10.1058 10.8333 9.20833V4.875C10.8333 3.97753 10.1058 3.25 9.20833 3.25Z" stroke="#C40E3D" stroke-width="1.84167"/>
<path d="M21.1253 3.25H16.792C15.8946 3.25 15.167 3.97753 15.167 4.875V9.20833C15.167 10.1058 15.8946 10.8333 16.792 10.8333H21.1253C22.0228 10.8333 22.7503 10.1058 22.7503 9.20833V4.875C22.7503 3.97753 22.0228 3.25 21.1253 3.25Z" stroke="#C40E3D" stroke-width="1.84167"/>
<path d="M9.20833 15.1667H4.875C3.97753 15.1667 3.25 15.8943 3.25 16.7917V21.125C3.25 22.0225 3.97753 22.75 4.875 22.75H9.20833C10.1058 22.75 10.8333 22.0225 10.8333 21.125V16.7917C10.8333 15.8943 10.1058 15.1667 9.20833 15.1667Z" stroke="#C40E3D" stroke-width="1.84167"/>
<path d="M21.1253 15.1667H16.792C15.8946 15.1667 15.167 15.8943 15.167 16.7917V21.125C15.167 22.0225 15.8946 22.75 16.792 22.75H21.1253C22.0228 22.75 22.7503 22.0225 22.7503 21.125V16.7917C22.7503 15.8943 22.0228 15.1667 21.1253 15.1667Z" stroke="#C40E3D" stroke-width="1.84167"/>
</svg>
