<svg width="68" height="68" viewBox="0 0 68 68" fill="none" xmlns="http://www.w3.org/2000/svg">
<g filter="url(#filter0_d_182_313)">
<mask id="path-1-inside-1_182_313" fill="white">
<path d="M10 32C10 18.7452 20.7452 8 34 8C47.2548 8 58 18.7452 58 32C58 45.2548 47.2548 56 34 56C20.7452 56 10 45.2548 10 32Z"/>
</mask>
<path d="M10 32C10 18.7452 20.7452 8 34 8C47.2548 8 58 18.7452 58 32C58 45.2548 47.2548 56 34 56C20.7452 56 10 45.2548 10 32Z" fill="white" shape-rendering="crispEdges"/>
<path d="M10 32M58 32M58 32M10 32M34 8M58 32M34 56M10 32M34 56V55C21.2975 55 11 44.7025 11 32H10H9C9 45.8071 20.1929 57 34 57V56ZM58 32H57C57 44.7025 46.7025 55 34 55V56V57C47.8071 57 59 45.8071 59 32H58ZM34 8V9C46.7025 9 57 19.2975 57 32H58H59C59 18.1929 47.8071 7 34 7V8ZM34 8V7C20.1929 7 9 18.1929 9 32H10H11C11 19.2975 21.2975 9 34 9V8Z" fill="#DDD6C6" mask="url(#path-1-inside-1_182_313)"/>
<path d="M32 27L37 32L32 37" stroke="#1A1A1A" stroke-width="1.8" stroke-linecap="round" stroke-linejoin="round"/>
</g>
<defs>
<filter id="filter0_d_182_313" x="0" y="0" width="68" height="68" filterUnits="userSpaceOnUse" color-interpolation-filters="sRGB">
<feFlood flood-opacity="0" result="BackgroundImageFix"/>
<feColorMatrix in="SourceAlpha" type="matrix" values="0 0 0 0 0 0 0 0 0 0 0 0 0 0 0 0 0 0 127 0" result="hardAlpha"/>
<feOffset dy="2"/>
<feGaussianBlur stdDeviation="5"/>
<feComposite in2="hardAlpha" operator="out"/>
<feColorMatrix type="matrix" values="0 0 0 0 0 0 0 0 0 0 0 0 0 0 0 0 0 0 0.1 0"/>
<feBlend mode="normal" in2="BackgroundImageFix" result="effect1_dropShadow_182_313"/>
<feBlend mode="normal" in="SourceGraphic" in2="effect1_dropShadow_182_313" result="shape"/>
</filter>
</defs>
</svg>
