<svg width="13" height="13" viewBox="0 0 13 13" fill="none" xmlns="http://www.w3.org/2000/svg">
<g clip-path="url(#clip0_778_2310)">
<path d="M1.11784 6.68857C1.0727 6.56696 1.0727 6.43319 1.11784 6.31157C1.55751 5.24549 2.30383 4.33397 3.26218 3.69256C4.22052 3.05115 5.34774 2.70874 6.50093 2.70874C7.65411 2.70874 8.78133 3.05115 9.73967 3.69256C10.698 4.33397 11.4443 5.24549 11.884 6.31157C11.9292 6.43319 11.9292 6.56696 11.884 6.68857C11.4443 7.75465 10.698 8.66618 9.73967 9.30759C8.78133 9.949 7.65411 10.2914 6.50093 10.2914C5.34774 10.2914 4.22052 9.949 3.26218 9.30759C2.30383 8.66618 1.55751 7.75465 1.11784 6.68857Z" stroke="#888888" stroke-width="1.08333" stroke-linecap="round" stroke-linejoin="round"/>
<path d="M6.5 8.125C7.39746 8.125 8.125 7.39746 8.125 6.5C8.125 5.60254 7.39746 4.875 6.5 4.875C5.60254 4.875 4.875 5.60254 4.875 6.5C4.875 7.39746 5.60254 8.125 6.5 8.125Z" stroke="#888888" stroke-width="1.08333" stroke-linecap="round" stroke-linejoin="round"/>
</g>
<defs>
<clipPath id="clip0_778_2310">
<rect width="13" height="13" fill="white"/>
</clipPath>
</defs>
</svg>
