<svg width="16" height="16" viewBox="0 0 16 16" fill="none" xmlns="http://www.w3.org/2000/svg">
<path d="M6 2H2.66667C2.29848 2 2 2.29848 2 2.66667V6C2 6.36819 2.29848 6.66667 2.66667 6.66667H6C6.36819 6.66667 6.66667 6.36819 6.66667 6V2.66667C6.66667 2.29848 6.36819 2 6 2Z" stroke="white" stroke-width="1.33333" stroke-linecap="round" stroke-linejoin="round"/>
<path d="M13.334 2H10.0007C9.63246 2 9.33398 2.29848 9.33398 2.66667V6C9.33398 6.36819 9.63246 6.66667 10.0007 6.66667H13.334C13.7022 6.66667 14.0007 6.36819 14.0007 6V2.66667C14.0007 2.29848 13.7022 2 13.334 2Z" stroke="white" stroke-width="1.33333" stroke-linecap="round" stroke-linejoin="round"/>
<path d="M13.334 9.33325H10.0007C9.63246 9.33325 9.33398 9.63173 9.33398 9.99992V13.3333C9.33398 13.7014 9.63246 13.9999 10.0007 13.9999H13.334C13.7022 13.9999 14.0007 13.7014 14.0007 13.3333V9.99992C14.0007 9.63173 13.7022 9.33325 13.334 9.33325Z" stroke="white" stroke-width="1.33333" stroke-linecap="round" stroke-linejoin="round"/>
<path d="M6 9.33325H2.66667C2.29848 9.33325 2 9.63173 2 9.99992V13.3333C2 13.7014 2.29848 13.9999 2.66667 13.9999H6C6.36819 13.9999 6.66667 13.7014 6.66667 13.3333V9.99992C6.66667 9.63173 6.36819 9.33325 6 9.33325Z" stroke="white" stroke-width="1.33333" stroke-linecap="round" stroke-linejoin="round"/>
</svg>
