<svg width="98" height="29" viewBox="0 0 98 29" fill="none" xmlns="http://www.w3.org/2000/svg">
<g clip-path="url(#clip0_182_224)">
<mask id="mask0_182_224" style="mask-type:luminance" maskUnits="userSpaceOnUse" x="0" y="0" width="98" height="29">
<path d="M98 0H0V29H98V0Z" fill="white"/>
</mask>
<g mask="url(#mask0_182_224)">
<path d="M7.9488 0.0301743L4.11987 13.9478H7.47575C7.87994 13.9478 8.08658 14.8345 7.80335 15.3633L0 28.9284H9.6221L13.3945 21.862C13.7237 21.2465 14.2854 21.8282 14.1645 22.6619L13.2336 28.9339H21.0033L25.2932 0.0329062H7.9488V0.0301743Z" fill="#C40E3D"/>
<path d="M51.8496 0.0301743V9.05761H62.779C63.0716 9.05761 63.329 9.41566 63.4057 9.9332C63.5158 10.6829 63.2046 11.4243 62.779 11.4243H51.8496V28.9311H61.6753L64.0405 23.241C64.4432 22.2703 65.284 22.5698 65.4597 23.7391L66.23 28.9311H73.8683L69.5783 0.0329062H51.851L51.8496 0.0301743Z" fill="#C40E3D"/>
<path d="M81.0527 10.9069L88.571 28.9227H97.9651L85.016 0.0271683H71.0938L75.3831 28.9257H83.5083L80.5089 11.4188C80.4062 10.8146 80.8424 10.4033 81.054 10.9069H81.0527Z" fill="#C40E3D"/>
<path d="M38.2256 9.69825C37.9255 10.3109 37.376 10.1458 37.1983 9.38764H37.1937L34.9999 0.0301743H26.7755L22.4873 28.9284H30.3121L31.4449 19.9818C31.5751 18.9524 32.3406 18.7874 32.5993 19.7329L35.1209 28.9284H37.1755L41.8556 19.1959C42.249 18.3762 42.9901 18.9553 42.9365 20.0436L42.4909 28.9284H50.348V0.0301743H42.9885L38.2302 9.69825H38.2256Z" fill="#C40E3D"/>
</g>
</g>
<defs>
<clipPath id="clip0_182_224">
<rect width="98" height="29" fill="white"/>
</clipPath>
</defs>
</svg>
