<svg width="149" height="25" viewBox="0 0 149 25" fill="none" xmlns="http://www.w3.org/2000/svg">
<g clip-path="url(#clip0_669_44)">
<path d="M12.0449 0.0252686L6.24286 11.6333H11.328C11.9405 11.6333 12.2536 12.3729 11.8245 12.8139L0 24.1279H14.5804L20.2967 18.2341C20.7956 17.7208 21.6468 18.206 21.4635 18.9013L20.053 24.1325H31.8265L38.3269 0.0275471H12.0449L12.0449 0.0252686Z" fill="#D01039"/>
<path d="M78.5684 0.0252686L78.5684 7.55462H95.1298C95.5732 7.55462 95.9632 7.85325 96.0794 8.2849C96.2463 8.91022 95.7748 9.52857 95.1298 9.52857H78.5684L78.5684 24.1301H93.4574L97.0413 19.3843C97.6516 18.5747 98.9257 18.8244 99.192 19.7997L100.359 24.1301H111.934L105.433 0.0275471H78.5706L78.5684 0.0252686Z" fill="#D01039"/>
<path d="M122.819 9.09694L134.212 24.123H148.447L128.825 0.0227051H107.729L114.228 24.1256H126.54L121.995 9.52392C121.84 9.01996 122.501 8.67695 122.821 9.09694H122.819Z" fill="#D01039"/>
<path d="M57.9226 8.08895C57.4679 8.59993 56.6352 8.46219 56.366 7.82988H56.359L53.0348 0.0252686H40.5722L34.0742 24.1279H45.9312L47.6478 16.6659C47.8451 15.8074 49.005 15.6698 49.3971 16.4584L53.2181 24.1279H56.3314L63.4231 16.0104C64.0193 15.3268 65.1423 15.8098 65.0611 16.7175L64.3859 24.1279H76.2917L76.2917 0.0252686H65.1399L57.9297 8.08895H57.9226Z" fill="#D01039"/>
</g>
<defs>
<clipPath id="clip0_669_44">
<rect width="148.5" height="24.1875" fill="white"/>
</clipPath>
</defs>
</svg>
