<svg width="16" height="16" viewBox="0 0 16 16" fill="none" xmlns="http://www.w3.org/2000/svg">
<path d="M6 2H2.66667C2.29848 2 2 2.29848 2 2.66667V6C2 6.36819 2.29848 6.66667 2.66667 6.66667H6C6.36819 6.66667 6.66667 6.36819 6.66667 6V2.66667C6.66667 2.29848 6.36819 2 6 2Z" stroke="#888888" stroke-width="1.33333" stroke-linecap="round" stroke-linejoin="round"/>
<path d="M13.334 2H10.0007C9.63246 2 9.33398 2.29848 9.33398 2.66667V6C9.33398 6.36819 9.63246 6.66667 10.0007 6.66667H13.334C13.7022 6.66667 14.0007 6.36819 14.0007 6V2.66667C14.0007 2.29848 13.7022 2 13.334 2Z" stroke="#888888" stroke-width="1.33333" stroke-linecap="round" stroke-linejoin="round"/>
<path d="M13.334 9.3335H10.0007C9.63246 9.3335 9.33398 9.63197 9.33398 10.0002V13.3335C9.33398 13.7017 9.63246 14.0002 10.0007 14.0002H13.334C13.7022 14.0002 14.0007 13.7017 14.0007 13.3335V10.0002C14.0007 9.63197 13.7022 9.3335 13.334 9.3335Z" stroke="#888888" stroke-width="1.33333" stroke-linecap="round" stroke-linejoin="round"/>
<path d="M6 9.3335H2.66667C2.29848 9.3335 2 9.63197 2 10.0002V13.3335C2 13.7017 2.29848 14.0002 2.66667 14.0002H6C6.36819 14.0002 6.66667 13.7017 6.66667 13.3335V10.0002C6.66667 9.63197 6.36819 9.3335 6 9.3335Z" stroke="#888888" stroke-width="1.33333" stroke-linecap="round" stroke-linejoin="round"/>
</svg>
